<svg width="273" height="273" viewBox="0 0 273 273" fill="none" xmlns="http://www.w3.org/2000/svg">
<mask id="path-1-inside-1_180_656" fill="white">
<path d="M273 136.5C273 211.887 211.887 273 136.5 273C61.1131 273 0 211.887 0 136.5C0 61.1131 61.1131 0 136.5 0C211.887 0 273 61.1131 273 136.5ZM40.95 136.5C40.95 189.271 83.7292 232.05 136.5 232.05C189.271 232.05 232.05 189.271 232.05 136.5C232.05 83.7292 189.271 40.95 136.5 40.95C83.7292 40.95 40.95 83.7292 40.95 136.5Z"/>
</mask>
<path d="M273 136.5C273 211.887 211.887 273 136.5 273C61.1131 273 0 211.887 0 136.5C0 61.1131 61.1131 0 136.5 0C211.887 0 273 61.1131 273 136.5ZM40.95 136.5C40.95 189.271 83.7292 232.05 136.5 232.05C189.271 232.05 232.05 189.271 232.05 136.5C232.05 83.7292 189.271 40.95 136.5 40.95C83.7292 40.95 40.95 83.7292 40.95 136.5Z" stroke="#14A166" stroke-width="122.402" mask="url(#path-1-inside-1_180_656)"/>
<mask id="path-2-inside-2_180_656" fill="white">
<path d="M136.5 0C111.651 -2.96323e-07 87.2731 6.78323 65.9953 19.6183C44.7176 32.4533 27.3471 50.8531 15.757 72.8338C4.1669 94.8145 -1.20315 119.542 0.225912 144.35C1.65497 169.158 9.82892 193.105 23.8664 213.61L57.6565 190.477C47.8302 176.124 42.1085 159.361 41.1081 141.995C40.1078 124.629 43.8668 107.32 51.9799 91.9337C60.093 76.5472 72.2523 63.6673 87.1467 54.6828C102.041 45.6983 119.106 40.95 136.5 40.95V0Z"/>
</mask>
<path d="M136.5 0C111.651 -2.96323e-07 87.2731 6.78323 65.9953 19.6183C44.7176 32.4533 27.3471 50.8531 15.757 72.8338C4.1669 94.8145 -1.20315 119.542 0.225912 144.35C1.65497 169.158 9.82892 193.105 23.8664 213.61L57.6565 190.477C47.8302 176.124 42.1085 159.361 41.1081 141.995C40.1078 124.629 43.8668 107.32 51.9799 91.9337C60.093 76.5472 72.2523 63.6673 87.1467 54.6828C102.041 45.6983 119.106 40.95 136.5 40.95V0Z" stroke="#F6FAF0" stroke-width="122.402" mask="url(#path-2-inside-2_180_656)"/>
<path opacity="0.45" d="M112 160.361C112.832 160.361 113.579 160.569 114.24 160.985C114.9 161.401 115.421 161.977 115.8 162.711C116.192 163.445 116.388 164.29 116.388 165.245C116.388 166.187 116.192 167.032 115.8 167.778C115.421 168.513 114.9 169.094 114.24 169.523C113.591 169.939 112.856 170.147 112.036 170.147C111.583 170.147 111.155 170.08 110.751 169.945C110.359 169.798 109.998 169.614 109.668 169.394C109.35 169.162 109.08 168.905 108.86 168.623C108.64 168.329 108.48 168.042 108.383 167.76L108.786 167.503V172.919C108.786 173.127 108.719 173.305 108.585 173.452C108.45 173.599 108.272 173.672 108.052 173.672C107.844 173.672 107.667 173.599 107.52 173.452C107.385 173.317 107.318 173.14 107.318 172.919V161.187C107.318 160.979 107.385 160.808 107.52 160.673C107.667 160.526 107.844 160.453 108.052 160.453C108.272 160.453 108.45 160.526 108.585 160.673C108.719 160.808 108.786 160.979 108.786 161.187V162.821L108.511 162.674C108.597 162.368 108.744 162.074 108.952 161.793C109.172 161.511 109.435 161.267 109.741 161.059C110.059 160.838 110.408 160.667 110.788 160.544C111.179 160.422 111.583 160.361 112 160.361ZM111.834 161.719C111.222 161.719 110.678 161.873 110.2 162.179C109.735 162.485 109.368 162.901 109.099 163.427C108.842 163.953 108.713 164.559 108.713 165.245C108.713 165.918 108.842 166.524 109.099 167.062C109.368 167.601 109.735 168.023 110.2 168.329C110.678 168.635 111.222 168.788 111.834 168.788C112.446 168.788 112.985 168.635 113.45 168.329C113.915 168.023 114.282 167.601 114.552 167.062C114.821 166.524 114.956 165.918 114.956 165.245C114.956 164.559 114.821 163.953 114.552 163.427C114.282 162.901 113.915 162.485 113.45 162.179C112.985 161.873 112.446 161.719 111.834 161.719ZM122.984 170.184C122.005 170.184 121.148 169.976 120.413 169.559C119.679 169.143 119.104 168.574 118.687 167.852C118.284 167.117 118.082 166.273 118.082 165.318C118.082 164.253 118.29 163.347 118.706 162.601C119.134 161.842 119.685 161.267 120.358 160.875C121.044 160.471 121.766 160.269 122.525 160.269C123.088 160.269 123.632 160.373 124.159 160.581C124.685 160.789 125.15 161.095 125.554 161.499C125.958 161.891 126.282 162.368 126.527 162.931C126.772 163.482 126.901 164.1 126.913 164.786C126.913 164.982 126.839 165.147 126.693 165.281C126.546 165.416 126.374 165.483 126.178 165.483H118.926L118.596 164.217H125.664L125.371 164.474V164.07C125.322 163.568 125.15 163.139 124.857 162.784C124.575 162.417 124.226 162.136 123.81 161.94C123.406 161.744 122.978 161.646 122.525 161.646C122.158 161.646 121.79 161.713 121.423 161.848C121.068 161.97 120.744 162.179 120.45 162.472C120.169 162.754 119.936 163.121 119.752 163.574C119.581 164.027 119.495 164.571 119.495 165.208C119.495 165.918 119.636 166.542 119.918 167.081C120.211 167.619 120.615 168.048 121.129 168.366C121.643 168.672 122.243 168.825 122.929 168.825C123.357 168.825 123.73 168.77 124.049 168.66C124.367 168.55 124.642 168.415 124.875 168.256C125.107 168.084 125.303 167.913 125.462 167.742C125.622 167.632 125.775 167.576 125.921 167.576C126.105 167.576 126.252 167.638 126.362 167.76C126.484 167.882 126.546 168.029 126.546 168.201C126.546 168.409 126.448 168.592 126.252 168.751C125.909 169.131 125.444 169.468 124.857 169.761C124.269 170.043 123.645 170.184 122.984 170.184ZM138.135 165.226C138.135 166.181 137.921 167.032 137.493 167.778C137.077 168.525 136.508 169.113 135.785 169.541C135.075 169.969 134.274 170.184 133.38 170.184C132.487 170.184 131.679 169.969 130.957 169.541C130.234 169.113 129.659 168.525 129.231 167.778C128.815 167.032 128.606 166.181 128.606 165.226C128.606 164.272 128.815 163.421 129.231 162.674C129.659 161.928 130.234 161.34 130.957 160.912C131.679 160.483 132.487 160.269 133.38 160.269C134.274 160.269 135.075 160.483 135.785 160.912C136.508 161.34 137.077 161.928 137.493 162.674C137.921 163.421 138.135 164.272 138.135 165.226ZM136.667 165.226C136.667 164.516 136.52 163.892 136.226 163.354C135.944 162.815 135.553 162.393 135.051 162.087C134.561 161.781 134.004 161.628 133.38 161.628C132.756 161.628 132.193 161.781 131.691 162.087C131.201 162.393 130.81 162.815 130.516 163.354C130.222 163.892 130.075 164.516 130.075 165.226C130.075 165.924 130.222 166.542 130.516 167.081C130.81 167.619 131.201 168.048 131.691 168.366C132.193 168.672 132.756 168.825 133.38 168.825C134.004 168.825 134.561 168.672 135.051 168.366C135.553 168.048 135.944 167.619 136.226 167.081C136.52 166.542 136.667 165.924 136.667 165.226ZM145.027 160.361C145.859 160.361 146.606 160.569 147.267 160.985C147.928 161.401 148.448 161.977 148.827 162.711C149.219 163.445 149.415 164.29 149.415 165.245C149.415 166.187 149.219 167.032 148.827 167.778C148.448 168.513 147.928 169.094 147.267 169.523C146.618 169.939 145.883 170.147 145.063 170.147C144.61 170.147 144.182 170.08 143.778 169.945C143.386 169.798 143.025 169.614 142.695 169.394C142.377 169.162 142.107 168.905 141.887 168.623C141.667 168.329 141.508 168.042 141.41 167.76L141.814 167.503V172.919C141.814 173.127 141.746 173.305 141.612 173.452C141.477 173.599 141.299 173.672 141.079 173.672C140.871 173.672 140.694 173.599 140.547 173.452C140.412 173.317 140.345 173.14 140.345 172.919V161.187C140.345 160.979 140.412 160.808 140.547 160.673C140.694 160.526 140.871 160.453 141.079 160.453C141.299 160.453 141.477 160.526 141.612 160.673C141.746 160.808 141.814 160.979 141.814 161.187V162.821L141.538 162.674C141.624 162.368 141.771 162.074 141.979 161.793C142.199 161.511 142.462 161.267 142.768 161.059C143.087 160.838 143.435 160.667 143.815 160.544C144.207 160.422 144.61 160.361 145.027 160.361ZM144.861 161.719C144.249 161.719 143.705 161.873 143.227 162.179C142.762 162.485 142.395 162.901 142.126 163.427C141.869 163.953 141.74 164.559 141.74 165.245C141.74 165.918 141.869 166.524 142.126 167.062C142.395 167.601 142.762 168.023 143.227 168.329C143.705 168.635 144.249 168.788 144.861 168.788C145.473 168.788 146.012 168.635 146.477 168.329C146.942 168.023 147.309 167.601 147.579 167.062C147.848 166.524 147.983 165.918 147.983 165.245C147.983 164.559 147.848 163.953 147.579 163.427C147.309 162.901 146.942 162.485 146.477 162.179C146.012 161.873 145.473 161.719 144.861 161.719ZM153.238 169.247C153.238 169.455 153.165 169.633 153.018 169.78C152.871 169.927 152.694 170 152.486 170C152.278 170 152.106 169.927 151.972 169.78C151.837 169.633 151.77 169.455 151.77 169.247V157.148C151.77 156.94 151.837 156.768 151.972 156.634C152.118 156.487 152.296 156.413 152.504 156.413C152.724 156.413 152.902 156.487 153.036 156.634C153.171 156.768 153.238 156.94 153.238 157.148V169.247ZM160.296 170.184C159.317 170.184 158.46 169.976 157.726 169.559C156.991 169.143 156.416 168.574 156 167.852C155.596 167.117 155.394 166.273 155.394 165.318C155.394 164.253 155.602 163.347 156.018 162.601C156.447 161.842 156.997 161.267 157.671 160.875C158.356 160.471 159.078 160.269 159.837 160.269C160.4 160.269 160.945 160.373 161.471 160.581C161.997 160.789 162.463 161.095 162.867 161.499C163.27 161.891 163.595 162.368 163.84 162.931C164.084 163.482 164.213 164.1 164.225 164.786C164.225 164.982 164.152 165.147 164.005 165.281C163.858 165.416 163.687 165.483 163.491 165.483H156.238L155.908 164.217H162.977L162.683 164.474V164.07C162.634 163.568 162.463 163.139 162.169 162.784C161.887 162.417 161.538 162.136 161.122 161.94C160.718 161.744 160.29 161.646 159.837 161.646C159.47 161.646 159.103 161.713 158.735 161.848C158.38 161.97 158.056 162.179 157.762 162.472C157.481 162.754 157.248 163.121 157.065 163.574C156.893 164.027 156.808 164.571 156.808 165.208C156.808 165.918 156.948 166.542 157.23 167.081C157.524 167.619 157.928 168.048 158.442 168.366C158.956 168.672 159.556 168.825 160.241 168.825C160.669 168.825 161.043 168.77 161.361 168.66C161.679 168.55 161.955 168.415 162.187 168.256C162.42 168.084 162.616 167.913 162.775 167.742C162.934 167.632 163.087 167.576 163.234 167.576C163.417 167.576 163.564 167.638 163.674 167.76C163.797 167.882 163.858 168.029 163.858 168.201C163.858 168.409 163.76 168.592 163.564 168.751C163.221 169.131 162.756 169.468 162.169 169.761C161.581 170.043 160.957 170.184 160.296 170.184Z" fill="#212123"/>
<path d="M110.899 143.3C111.283 143.3 111.607 143.432 111.871 143.696C112.135 143.96 112.267 144.284 112.267 144.668C112.267 145.052 112.135 145.376 111.871 145.64C111.607 145.88 111.283 146 110.899 146H97.8306C97.3986 146 97.0386 145.88 96.7506 145.64C96.4866 145.376 96.3546 145.028 96.3546 144.596C96.3546 144.212 96.4986 143.864 96.7866 143.552L104.923 134.66C106.123 133.364 107.023 132.152 107.623 131.024C108.247 129.872 108.559 128.852 108.559 127.964C108.559 126.5 108.115 125.336 107.227 124.472C106.363 123.584 105.199 123.14 103.735 123.14C103.087 123.14 102.439 123.284 101.791 123.572C101.143 123.836 100.555 124.208 100.027 124.688C99.4986 125.144 99.0666 125.66 98.7306 126.236C98.5386 126.548 98.3346 126.752 98.1186 126.848C97.9266 126.92 97.7226 126.956 97.5066 126.956C97.1466 126.956 96.8226 126.836 96.5346 126.596C96.2466 126.332 96.1026 126.032 96.1026 125.696C96.1026 125.432 96.1746 125.192 96.3186 124.976C96.4626 124.736 96.6546 124.472 96.8946 124.184C97.3986 123.488 98.0226 122.864 98.7666 122.312C99.5346 121.736 100.363 121.28 101.251 120.944C102.163 120.608 103.051 120.44 103.915 120.44C105.451 120.44 106.783 120.74 107.911 121.34C109.063 121.94 109.951 122.792 110.575 123.896C111.199 125 111.511 126.296 111.511 127.784C111.511 129.056 111.127 130.46 110.359 131.996C109.591 133.532 108.463 135.092 106.975 136.676L100.675 143.66L100.315 143.3H110.899ZM120.532 146.072C120.532 146.768 120.328 147.452 119.92 148.124C119.536 148.82 119.044 149.384 118.444 149.816C117.844 150.272 117.232 150.5 116.608 150.5C116.392 150.5 116.176 150.416 115.96 150.248C115.744 150.104 115.636 149.84 115.636 149.456C115.636 149.048 115.768 148.808 116.032 148.736C116.296 148.664 116.584 148.556 116.896 148.412C117.256 148.22 117.532 147.98 117.724 147.692C117.94 147.428 118.048 147.116 118.048 146.756C118.048 146.468 117.94 146.228 117.724 146.036C117.532 145.868 117.292 145.784 117.004 145.784C116.836 145.784 116.656 145.808 116.464 145.856C116.296 145.904 116.152 145.976 116.032 146.072C115.864 145.952 115.72 145.808 115.6 145.64C115.48 145.472 115.42 145.256 115.42 144.992C115.444 144.464 115.708 144.02 116.212 143.66C116.716 143.276 117.292 143.084 117.94 143.084C118.708 143.084 119.332 143.372 119.812 143.948C120.292 144.524 120.532 145.232 120.532 146.072ZM128.729 146.108C128.345 146.108 127.997 145.988 127.685 145.748C127.397 145.484 127.253 145.148 127.253 144.74C127.253 144.524 127.301 144.308 127.397 144.092L136.685 123.032L137.117 123.68H125.525C125.141 123.68 124.817 123.56 124.553 123.32C124.289 123.056 124.157 122.72 124.157 122.312C124.157 121.928 124.289 121.616 124.553 121.376C124.817 121.112 125.141 120.98 125.525 120.98H138.521C138.953 120.98 139.301 121.112 139.565 121.376C139.853 121.64 139.997 121.976 139.997 122.384C139.997 122.6 139.949 122.816 139.853 123.032L130.097 145.208C129.977 145.496 129.785 145.724 129.521 145.892C129.281 146.036 129.017 146.108 128.729 146.108ZM151.027 120.368C152.395 120.368 153.595 120.632 154.627 121.16C155.683 121.664 156.559 122.36 157.255 123.248C157.951 124.136 158.479 125.132 158.839 126.236C159.199 127.34 159.379 128.48 159.379 129.656C159.379 130.688 159.247 131.84 158.983 133.112C158.719 134.384 158.311 135.68 157.759 137C157.231 138.32 156.535 139.592 155.671 140.816C154.807 142.016 153.775 143.096 152.575 144.056C151.375 145.016 149.995 145.76 148.435 146.288C148.219 146.36 148.027 146.396 147.859 146.396C147.475 146.396 147.127 146.276 146.815 146.036C146.527 145.796 146.383 145.436 146.383 144.956C146.383 144.62 146.491 144.332 146.707 144.092C146.923 143.828 147.211 143.636 147.571 143.516C148.867 143.036 150.103 142.292 151.279 141.284C152.479 140.252 153.511 139.052 154.375 137.684C155.263 136.292 155.851 134.84 156.139 133.328L157.003 133.04C156.619 133.688 156.115 134.3 155.491 134.876C154.867 135.428 154.135 135.884 153.295 136.244C152.479 136.604 151.567 136.784 150.559 136.784C148.999 136.784 147.655 136.412 146.527 135.668C145.399 134.924 144.523 133.928 143.899 132.68C143.275 131.432 142.963 130.052 142.963 128.54C142.963 127.076 143.311 125.732 144.007 124.508C144.727 123.26 145.699 122.264 146.923 121.52C148.147 120.752 149.515 120.368 151.027 120.368ZM151.063 123.068C150.079 123.068 149.191 123.308 148.399 123.788C147.631 124.244 147.019 124.892 146.563 125.732C146.107 126.548 145.879 127.484 145.879 128.54C145.879 129.548 146.071 130.472 146.455 131.312C146.863 132.152 147.439 132.824 148.183 133.328C148.951 133.808 149.875 134.048 150.955 134.048C152.083 134.048 153.055 133.796 153.871 133.292C154.687 132.788 155.311 132.116 155.743 131.276C156.199 130.412 156.427 129.476 156.427 128.468C156.427 127.484 156.211 126.596 155.779 125.804C155.347 124.988 154.723 124.328 153.907 123.824C153.115 123.32 152.167 123.068 151.063 123.068ZM164.69 141.824C164.834 141.824 164.99 141.86 165.158 141.932C165.35 141.98 165.554 142.1 165.77 142.292C166.25 142.724 166.814 143.072 167.462 143.336C168.11 143.6 168.854 143.732 169.694 143.732C170.726 143.732 171.674 143.504 172.538 143.048C173.402 142.568 174.098 141.896 174.626 141.032C175.178 140.168 175.454 139.172 175.454 138.044C175.454 136.82 175.178 135.824 174.626 135.056C174.098 134.264 173.414 133.688 172.574 133.328C171.758 132.944 170.894 132.752 169.982 132.752C169.646 132.752 169.334 132.776 169.046 132.824C168.758 132.872 168.482 132.932 168.218 133.004C167.978 133.076 167.75 133.112 167.534 133.112C167.15 133.112 166.85 132.98 166.634 132.716C166.418 132.452 166.31 132.128 166.31 131.744C166.31 131.528 166.346 131.336 166.418 131.168C166.514 130.976 166.658 130.772 166.85 130.556L173.834 122.996L174.41 123.68H164.186C163.802 123.68 163.478 123.548 163.214 123.284C162.95 123.02 162.818 122.696 162.818 122.312C162.818 121.928 162.95 121.616 163.214 121.376C163.478 121.112 163.802 120.98 164.186 120.98H175.922C176.45 120.98 176.834 121.136 177.074 121.448C177.314 121.736 177.434 122.06 177.434 122.42C177.434 122.636 177.374 122.84 177.254 123.032C177.158 123.224 177.026 123.404 176.858 123.572L169.874 131.168L169.046 130.448C169.166 130.352 169.442 130.268 169.874 130.196C170.306 130.1 170.666 130.052 170.954 130.052C172.298 130.052 173.534 130.376 174.662 131.024C175.79 131.672 176.69 132.584 177.362 133.76C178.034 134.936 178.37 136.304 178.37 137.864C178.37 139.592 177.974 141.092 177.182 142.364C176.39 143.636 175.298 144.62 173.906 145.316C172.538 146.012 170.99 146.36 169.262 146.36C168.302 146.36 167.354 146.216 166.418 145.928C165.506 145.616 164.714 145.172 164.042 144.596C163.73 144.428 163.514 144.236 163.394 144.02C163.298 143.804 163.25 143.588 163.25 143.372C163.25 143.012 163.382 142.664 163.646 142.328C163.934 141.992 164.282 141.824 164.69 141.824Z" fill="#212123"/>
</svg>
